<svg width="110" height="40" viewBox="0 0 110 40" fill="none" xmlns="http://www.w3.org/2000/svg">
<path d="M56.4739 13.0851H53.5083L51.8358 15.6189H54.7998L56.4739 13.0851ZM64.1669 19.7518C62.6134 19.8719 59.8686 21.1702 58.3737 24.0071C56.8787 26.844 56.8733 28.5953 56.8733 28.5953C56.8733 28.5953 57.6617 27.7878 58.8703 26.9423C60.079 26.0968 60.9785 25.7964 60.9785 25.7964C60.9785 25.7964 61.2028 24.7548 61.761 23.6655C62.3038 22.6058 63.1651 21.5026 64.2309 21.2523C66.3912 20.7442 65.3567 24.428 63.7699 26.8301C62.917 28.1211 59.8919 31.8313 57.2876 31.8313C54.6832 31.8313 54.1806 29.4853 54.7299 27.2918C55.2786 25.0988 56.0382 22.3124 59.8379 17.2496C63.6375 12.1868 67.7502 9.18536 70.1308 7.92406C72.5758 6.62938 73.5721 7.19676 73.5721 7.19676C73.5721 7.19676 70.4508 8.99299 68.675 11.154C66.9771 13.2196 65.964 15.5438 66.7519 16.6827C67.5021 17.7678 70.1466 17.7882 73.0586 13.8602C75.9329 9.98265 75.207 7.67699 75.207 7.67699C75.207 7.67699 75.5543 7.5713 75.7875 7.5421C77.1892 7.36781 78.312 7.71315 80.0505 8.54613C81.8719 9.41898 83.6194 10.8189 86.0139 11.9643C86.7348 11.2263 87.5371 10.4425 88.3811 9.67764C85.1531 8.2096 82.7025 6.11717 79.5365 5.91646C76.7808 5.74216 74.6081 6.68037 74.6081 6.68037C74.6081 6.68037 73.7676 5.61098 71.1747 5.96003C68.5817 6.30954 60.593 9.43011 53.7961 19.5993C47.6506 28.7937 50.5462 34.0627 54.9636 34.0025C59.752 33.9367 64.3073 28.9615 65.8489 24.8587C67.3904 20.7558 65.5685 19.6438 64.1669 19.7518ZM73.5672 11.2083C72.7624 13.0411 71.5776 14.3219 70.4116 15.2999C68.9161 16.5548 68.0955 16.5126 67.7402 16.2604C66.8124 15.6003 68.0573 13.1111 70.2181 10.8852C72.3699 8.66804 74.2226 7.97829 74.2226 7.97829C74.2226 8.00425 74.5307 9.0106 73.5672 11.2083ZM100.232 8.53547C98.0414 9.85239 95.0034 11.0451 92.0874 10.7823C91.3501 11.4975 90.5592 12.3217 89.7659 13.2233C94.8267 14.1559 99.2535 11.2268 101.61 8.73108C103.08 7.17497 103.806 5.78574 103.806 5.78574C103.806 5.78574 102.403 7.23106 100.232 8.53547Z" fill="#C5C5C5"/>
<path d="M97.8384 20.0907H94.7201L94.2135 20.8221C94.2135 20.8221 93.5774 19.7499 92.5002 19.7671C90.6545 19.7968 88.8073 21.1132 86.6609 23.3966C85.0876 25.0696 82.4797 28.7941 82.4797 28.7941C82.4797 28.7941 80.4787 31.675 79.4665 31.4493C77.7409 31.0641 80.9148 25.0988 80.9148 25.0988C80.9148 25.0988 82.5834 24.136 84.7457 22.4362C86.1072 21.3663 87.6736 19.8946 89.1134 18.5304C90.4228 17.2895 91.9659 15.6045 93.4325 13.7587C93.0569 13.8143 92.6719 13.8518 92.2794 13.8699C90.9641 15.4905 89.56 16.9409 88.3657 18.0937C86.588 19.8097 84.9526 21.2138 83.7643 22.1094C82.6256 22.9669 81.8953 23.3531 81.8953 23.3531C81.8953 23.3531 84.0675 19.1854 87.688 14.5805C91.3084 9.97616 96.3777 5.69859 95.9803 7.72798C95.8667 8.31065 95.4792 9.14642 94.8942 10.1384C95.306 10.0582 95.7059 9.95808 96.0919 9.84405C96.9642 8.16185 97.2614 6.7754 96.6104 6.3749C93.954 4.74045 87.1972 11.5035 83.8099 15.4316C80.4231 19.3596 77.3578 25.3625 77.3578 25.3625C77.3578 25.3625 76.8279 25.5702 76.242 25.674C75.8723 25.7398 75.7146 25.7255 75.654 25.7032C75.6238 25.6916 75.6203 25.6722 75.6203 25.6722C75.6203 25.6722 78.5997 20.4684 75.5493 19.7782C72.6056 19.1126 67.5051 24.2004 65.6916 27.7396C64.4472 30.1676 63.7451 33.2242 65.8791 33.952C68.1903 34.7404 72.1159 30.7985 73.0388 29.6531C73.9616 28.5072 75.1137 26.602 75.1137 26.602C75.1137 26.602 75.6774 26.5742 75.9855 26.532C76.5749 26.4509 76.8508 26.3832 76.8508 26.3832C76.8508 26.3832 76.4687 27.3182 76.0554 28.5035C75.2849 30.7137 74.5898 33.8759 77.3638 34.0247C79.1311 34.1188 81.7241 31.1369 81.7241 31.1369C81.7241 31.1369 81.0265 33.7883 83.3202 34.0247C85.0136 34.199 87.4781 31.7548 87.4781 31.7548C87.4781 31.7548 86.9412 33.8606 88.6579 34.0461C90.1276 34.2051 92.2139 32.5952 93.9247 30.824C95.7928 28.8901 97.2257 26.7722 97.2257 26.7722H96.1396C96.1396 26.7722 93.7357 30.181 92.0477 31.0933C90.6619 31.8424 91.1368 30.6423 91.557 30.0132C92.0204 29.3193 97.837 20.0907 97.837 20.0911L97.8384 20.0907ZM74.0797 26.5112C74.037 26.6025 73.2566 27.8712 72.4215 28.8688C71.522 29.9437 69.8752 31.5615 68.8854 31.2194C67.3378 30.6845 69.0407 27.5347 70.1541 26.0068C71.2675 24.479 71.394 24.3756 71.4252 24.3358C71.4565 24.2959 71.4878 24.2593 71.515 24.3066C71.5423 24.3539 71.8966 24.9815 72.5962 25.5261C73.2987 26.0731 73.9745 26.3619 74.0291 26.38C74.0837 26.3981 74.1229 26.4203 74.0797 26.5112ZM74.7758 25.376C74.6781 25.528 74.6081 25.5354 74.4052 25.4849C74.048 25.3945 72.5679 24.7553 72.5793 23.3373C72.5897 21.9555 74.6746 20.6019 75.4923 21.1804C76.2554 21.72 75.8907 23.0995 75.6029 23.8032C75.3156 24.5064 74.8398 25.2763 74.7758 25.376ZM88.9423 28.7941C88.5304 29.3216 88.1861 29.7982 87.8755 30.1328C87.2116 30.849 86.7785 31.1823 86.3925 31.2704C86.198 31.3144 85.9568 31.3037 85.7971 31.2134C85.2305 30.8912 85.6274 29.6368 86.6138 27.9505C87.5163 26.4092 88.5592 24.867 90.2735 23.0916C91.9946 21.3093 92.6531 21.2235 93.1348 21.2439C93.5402 21.2602 93.5977 21.6584 93.5977 21.6584C93.5977 21.6584 93.569 21.7506 93.5045 21.8549C92.9364 22.775 90.075 27.3437 88.9423 28.7941ZM42.9445 31.0238C41.0536 29.9321 38.6279 29.2317 35.841 29.209C28.6615 29.1506 20.8445 32.4093 15.5499 32.4533C9.3052 32.5043 8.99411 28.0158 9.45703 25.5512C10.4533 20.2413 14.4846 15.1757 17.0766 12.5048C19.669 9.83385 22.3855 7.76135 24.6441 7.23152C26.9026 6.7017 26.6902 8.30648 26.4139 8.52574C26.1286 8.5313 25.5813 8.58878 25.2707 8.78949C24.7845 9.10285 24.135 9.67671 24.0943 10.5866C24.0244 11.9884 25.9634 12.2341 27.365 9.29892C28.3211 7.29688 26.8049 5.93824 25.5456 5.80752C23.8185 5.62767 21.1789 6.18855 18.0282 8.08027C12.5446 11.3723 5.20988 18.6829 5.02283 26.7939C4.91615 31.421 8.15163 34.0247 12.5908 34.0247C17.03 34.0247 23.0568 31.485 28.9418 31.4201C32.5856 31.3909 34.9439 32.584 36.1382 34.5272C36.1382 34.5272 37.325 32.6828 39.968 32.584C42.5828 32.4858 45.4616 33.1704 47.8248 34.7224C47.0364 33.6581 44.8081 32.0992 42.9445 31.0238Z" fill="#C5C5C5"/>
<path d="M26.5945 12.8015C23.5848 12.0848 18.5864 16.8714 16.4802 20.767C15.1813 23.17 14.6117 26.1899 16.9243 26.9756C19.2369 27.7614 23.1605 23.8222 24.0834 22.6768C25.0063 21.5309 26.5166 19.2359 26.5166 19.2359C26.5166 19.2359 26.98 19.1524 27.2836 19.0866C27.5873 19.0208 28.078 18.8901 28.078 18.8901C28.078 18.8901 27.5089 19.8376 26.9954 20.8087C26.3866 21.9601 24.7324 25.7932 27.9262 26.9427C30.9776 28.0409 35.3215 23.4615 35.5497 23.3749C35.5497 23.3749 34.2567 26.4954 36.2652 26.9756C38.4691 27.5022 40.8845 24.8642 40.8845 24.8642C40.8845 24.8642 40.3759 26.8445 42.0931 27.0303C45.1683 27.3627 50.6077 20.0142 50.6077 20.0142H49.5212C49.5212 20.0142 46.7531 23.3419 45.4219 24.0294C44.0907 24.7168 44.5695 23.4954 44.9312 22.9493C45.3926 22.2545 51.2731 13.0745 51.2731 13.0745H48.1547L47.793 13.6089C47.793 13.6089 47.1505 12.6925 46.0763 12.7579C42.951 12.9484 39.2322 17.6024 37.5969 19.6535C35.962 21.7052 32.4348 25.6221 30.5777 24.924C28.5538 24.1629 30.5663 20.6687 31.8975 18.6171C33.3468 16.3837 35.9154 14.1717 36.931 14.1545C38.1809 14.1327 37.6902 15.191 37.6902 15.191C37.6902 15.191 36.7559 15.0821 36.0786 15.8784C35.5993 16.4416 35.2024 17.264 35.6579 17.7113C36.3937 18.434 37.3518 17.7002 37.9239 16.8816C39.7076 14.3307 38.4026 12.9864 37.0015 12.7903C34.0166 12.3717 31.2668 15.9545 29.1765 17.2858C27.7262 18.2087 27.1204 18.1368 27.1204 18.1368C27.1204 18.1368 29.636 13.526 26.5945 12.8015ZM40.1075 21.0506C41.01 19.5089 42.2395 18.0205 43.8396 16.1547C45.4397 14.289 46.2361 14.1378 46.7178 14.1582C47.1232 14.1749 47.1808 14.5726 47.1808 14.5726C47.1808 14.5726 43.7041 20.232 42.4429 21.847C42.0311 22.3745 41.6788 22.8214 41.3682 23.1565C40.7043 23.8727 40.2221 24.219 39.85 24.3052C39.6555 24.3497 39.4143 24.3386 39.2541 24.2477C38.6874 23.9255 39.1201 22.7366 40.1075 21.0506ZM25.3526 19.2141C25.3094 19.3049 24.3166 20.8388 23.4821 21.8364C22.583 22.9113 20.9214 24.5356 19.9315 24.1935C18.384 23.6585 20.0347 20.5306 21.1481 19.0032C22.2615 17.4753 22.4247 17.2788 22.4565 17.2394C22.4877 17.1991 22.5185 17.1625 22.5458 17.2102C22.5731 17.2575 22.9273 17.938 23.6944 18.3959C24.4615 18.8544 25.2479 19.0653 25.3025 19.0834C25.3571 19.1015 25.3958 19.1237 25.3526 19.2141ZM26.6471 16.8264C26.3593 17.5305 26.1023 17.9741 26.0492 18.0789C25.9639 18.2467 25.75 18.1929 25.75 18.1929C25.5064 18.1827 23.6125 17.779 23.6235 16.361C23.6339 14.9792 25.7193 13.6256 26.5364 14.2041C27.2995 14.7437 26.9348 16.1232 26.6471 16.8264ZM95.4921 32.3425C95.31 32.2461 95.1076 32.1984 94.8848 32.1984C94.662 32.1984 94.4596 32.2466 94.2775 32.3425C94.0954 32.439 93.9525 32.5697 93.8478 32.7361C93.7436 32.902 93.691 33.0828 93.691 33.2775C93.691 33.4722 93.7431 33.6562 93.8478 33.8212C93.952 33.9858 94.0954 34.1165 94.2775 34.2125C94.4596 34.3089 94.662 34.3566 94.8848 34.3566C95.1076 34.3566 95.31 34.3084 95.4921 34.2125C95.6742 34.1165 95.8171 33.9858 95.9218 33.8212C96.026 33.6567 96.0786 33.4754 96.0786 33.2775C96.0786 33.0796 96.0265 32.902 95.9218 32.7361C95.8176 32.5701 95.6742 32.439 95.4921 32.3425ZM95.7059 33.7244C95.6271 33.856 95.5159 33.9594 95.3735 34.0349C95.2311 34.11 95.0679 34.1476 94.8848 34.1476C94.7017 34.1476 94.5385 34.11 94.3961 34.0349C94.2537 33.9598 94.143 33.8565 94.0636 33.7244C93.9848 33.5927 93.9451 33.4435 93.9451 33.2775C93.9451 33.1116 93.9848 32.9665 94.0636 32.8348C94.1425 32.7032 94.2542 32.5998 94.3981 32.5243C94.5419 32.4487 94.7042 32.4116 94.8848 32.4116C95.0654 32.4116 95.2276 32.4492 95.3715 32.5243C95.5154 32.5993 95.6271 32.7027 95.7059 32.8348C95.7848 32.9665 95.8245 33.1143 95.8245 33.2775C95.8245 33.4407 95.7848 33.5927 95.7059 33.7244Z" fill="#C5C5C5"/>
<path d="M95.3333 33.2599C95.3671 33.2084 95.3839 33.151 95.3839 33.0879C95.3839 33.0008 95.3537 32.928 95.2931 32.8687C95.2326 32.8093 95.1512 32.7797 95.05 32.7797H94.4447V33.7563H94.7111V33.4003H94.9141L95.1597 33.7563H95.4643L95.1894 33.3767C95.2515 33.3503 95.2996 33.3113 95.3333 33.2599ZM95.0793 33.157C95.0594 33.1741 95.0326 33.1825 94.9989 33.1825H94.7111V32.9929H94.9989C95.0326 32.9929 95.0594 33.0017 95.0793 33.0184C95.0991 33.0355 95.1091 33.0587 95.1091 33.0875C95.1091 33.1162 95.0991 33.1398 95.0793 33.157Z" fill="#C5C5C5"/>
</svg>
