<svg width="250" height="40" viewBox="0 0 250 40" fill="none" xmlns="http://www.w3.org/2000/svg">
<path fill-rule="evenodd" clip-rule="evenodd" d="M46.6959 18.7976L46.6654 18.815L41.2123 21.0377L41.0452 21.1147L39.7161 27.1831C39.6275 27.3907 39.3616 27.44 39.183 27.2673L35.2101 22.5722L35.1912 22.5577L12.7876 32.1656C12.7542 32.1801 12.7165 32.1819 12.6818 32.1707C12.6471 32.1595 12.6177 32.1359 12.5991 32.1045C12.5806 32.0731 12.5741 32.036 12.581 32.0002C12.5879 31.9644 12.6077 31.9323 12.6366 31.9101L32.0042 17.4213L29.5536 11.8291C29.4316 11.575 29.6568 11.3035 29.956 11.379H29.9589L35.8943 12.8395L40.5019 8.74115C40.7009 8.58581 40.9711 8.6976 41.022 8.9444L41.4723 15.1014L46.7859 18.2096C47.014 18.3548 46.9806 18.6916 46.6959 18.7976ZM43.9882 1.19481C37.1115 -1.50259 29.5493 0.522638 24.8835 5.70548L6.67651 25.1999C6.43102 25.4627 6.54577 25.7923 6.84355 25.8358L11.6953 26.1334C12.0831 26.1581 12.1311 26.492 11.9364 26.72L0.0758561 39.5043C-0.130414 39.725 0.119433 40.0734 0.401239 39.9863L17.3328 34.6394C17.6902 34.516 17.9662 34.8354 17.8151 35.1156L15.549 39.1167C15.4328 39.3446 15.6522 39.6567 15.9369 39.6364L40.3465 34.2024C46.1787 33.2791 51.3863 29.3883 53.7003 23.497C57.1866 14.6557 52.8317 4.67182 43.9882 1.19481Z" fill="#C5C5C5"/>
<path fill-rule="evenodd" clip-rule="evenodd" d="M109.422 30.8575H103.86L108.214 10.4862L114.28 8.25771L109.424 30.8546" fill="#C5C5C5"/>
<path fill-rule="evenodd" clip-rule="evenodd" d="M97.4761 19.1896C96.1441 19.1896 95.3786 20.2915 95.0677 21.5676C97.7013 21.5676 98.4988 20.7459 98.4988 20.0636C98.4988 19.5845 98.0703 19.1896 97.4761 19.1896ZM94.4446 25.1361C94.4155 25.2754 94.3864 25.5339 94.3864 25.6732C94.3864 26.5806 95.0082 26.8927 96.6554 26.8927C98.1269 26.8927 100.223 26.5225 101.445 26.1001V30.2637C99.886 30.8299 97.4456 31.1392 95.489 31.1392C90.8987 31.1392 88.6879 29.8921 88.6879 25.7313C88.6879 21.646 90.5864 15.2771 97.9032 15.2771C102.549 15.2771 103.936 17.3749 103.936 19.5859C103.936 22.4459 101.472 24.8806 94.4446 25.1361Z" fill="#C5C5C5"/>
<path fill-rule="evenodd" clip-rule="evenodd" d="M119.524 14.5468C117.628 14.5468 116.408 13.3288 116.408 11.6578C116.408 9.47575 117.939 8.25916 119.835 8.25916C121.764 8.25916 122.955 9.47575 122.955 11.1192C122.955 13.3288 121.453 14.5468 119.524 14.5468Z" fill="#C5C5C5"/>
<path fill-rule="evenodd" clip-rule="evenodd" d="M115.622 15.7881H121.345L118.452 30.6311H112.67L114.707 20.2073" fill="#C5C5C5"/>
<path fill-rule="evenodd" clip-rule="evenodd" d="M137.84 15.7881C135.854 20.7749 133.671 25.6456 130.896 30.6311H123.808C122.903 25.9273 122.503 20.9709 122.619 15.7881H128.402C128.292 18.204 128.309 20.6241 128.454 23.0383C128.485 23.6625 128.543 24.2548 128.598 24.8544H128.63C128.883 24.2548 129.165 23.664 129.422 23.0383C130.413 20.5993 131.319 17.9425 132.003 15.7881H137.84Z" fill="#C5C5C5"/>
<path fill-rule="evenodd" clip-rule="evenodd" d="M145.578 19.1896C144.249 19.1896 143.479 20.2915 143.165 21.5676C145.804 21.5676 146.598 20.7459 146.598 20.0636C146.598 19.5845 146.176 19.1896 145.578 19.1896ZM142.548 25.1361C142.513 25.3132 142.493 25.4928 142.487 25.6732C142.487 26.5806 143.113 26.8927 144.754 26.8927C146.23 26.8927 148.328 26.5225 149.546 26.1001V30.2637C147.986 30.8299 145.549 31.1392 143.595 31.1392C139 31.1392 136.791 29.8921 136.791 25.7313C136.791 21.646 138.688 15.2771 146.002 15.2771C150.65 15.2771 152.038 17.3749 152.038 19.5859C152.038 22.4459 149.577 24.8806 142.548 25.1361Z" fill="#C5C5C5"/>
<path fill-rule="evenodd" clip-rule="evenodd" d="M163.153 21.029C162.697 20.9201 162.231 20.8617 161.763 20.8548C160.486 20.8548 159.466 22.1323 159.01 24.4842L157.825 30.6325H152.039L154.934 15.7895H159.273L159.412 17.7683C160.743 16.1278 161.795 15.2771 163.41 15.2771C164.145 15.2771 164.543 15.3337 164.739 15.3903L163.154 21.0275" fill="#C5C5C5"/>
<path fill-rule="evenodd" clip-rule="evenodd" d="M181.235 15.7881C178.681 22.4183 176.415 27.26 174.146 30.6064C170.86 35.5076 167.967 36.6414 164.989 36.6414C164.11 36.6414 163.178 36.4091 162.721 36.1856L163.631 31.9072H165.615C166.607 31.9072 167.03 31.5079 167.684 30.6311C166.578 26.6387 166.038 21.058 166.094 15.7881H171.908C171.795 18.176 171.814 20.5682 171.964 22.9541C171.993 23.6045 172.046 24.2287 172.102 24.8544H172.131C172.389 24.2548 172.669 23.664 172.926 23.0107C173.893 20.6491 174.735 18.2382 175.448 15.7881H181.235Z" fill="#C5C5C5"/>
<path fill-rule="evenodd" clip-rule="evenodd" d="M203.461 30.6311H197.36L198.809 23.15H193.648L192.199 30.6311H186.11L189.962 10.8578H196.059L194.672 17.9135H199.83L201.22 10.8578H207.311L203.46 30.6311" fill="#C5C5C5"/>
<path fill-rule="evenodd" clip-rule="evenodd" d="M215.474 19.1896C214.141 19.1896 213.38 20.2915 213.066 21.5676C215.702 21.5676 216.5 20.7459 216.5 20.0636C216.5 19.5845 216.07 19.1896 215.474 19.1896ZM212.441 25.1361C212.409 25.3134 212.391 25.493 212.388 25.6732C212.388 26.5806 213.012 26.8927 214.652 26.8927C216.128 26.8927 218.226 26.5225 219.444 26.1001V30.2637C217.886 30.8299 215.447 31.1392 213.489 31.1392C208.898 31.1392 206.688 29.8921 206.688 25.7313C206.688 21.646 208.586 15.2771 215.9 15.2771C220.548 15.2771 221.94 17.3749 221.94 19.5859C221.94 22.4459 219.471 24.8806 212.441 25.1361Z" fill="#C5C5C5"/>
<path fill-rule="evenodd" clip-rule="evenodd" d="M233.047 21.029C232.593 20.9197 232.128 20.8613 231.661 20.8548C230.387 20.8548 229.364 22.1323 228.911 24.4842L227.72 30.6325H221.94L224.828 15.7895H229.164L229.309 17.7683C230.64 16.1278 231.687 15.2771 233.301 15.2771C234.042 15.2771 234.437 15.3337 234.637 15.3903L233.047 21.0275" fill="#C5C5C5"/>
<path fill-rule="evenodd" clip-rule="evenodd" d="M242.545 19.8385C240.221 19.8385 239.596 23.3809 239.596 24.9677C239.596 26.2409 240.134 26.6082 241.187 26.6082C243.478 26.6082 244.075 23.0658 244.075 21.4544C244.075 20.2087 243.566 19.8385 242.545 19.8385ZM240.388 31.1392C235.882 31.1392 233.674 29.2127 233.674 25.3611C233.674 21.0827 235.798 15.2771 243.283 15.2771C247.763 15.2771 250 17.2602 250 21.058C250 25.4206 247.873 31.1392 240.388 31.1392Z" fill="#C5C5C5"/>
<path fill-rule="evenodd" clip-rule="evenodd" d="M76.2753 25.9273H75.1408L77.1803 15.5006H78.7709C81.1779 15.5006 82.0567 16.9234 82.0567 18.8731C82.0567 22.8147 79.872 25.9273 76.2753 25.9273ZM81.6776 15.8708L85.5299 12.1761C84.0264 11.2716 81.9637 10.8578 79.3897 10.8578H72.0206L68.1698 30.6325H75.8526C84.7774 30.6325 88.3465 24.4 88.3465 17.9149C88.3465 16.2294 87.9833 14.8807 87.2832 13.8354L81.6776 15.8708Z" fill="#C5C5C5"/>
</svg>
