<svg width="202" height="40" viewBox="0 0 202 40" fill="none" xmlns="http://www.w3.org/2000/svg">
<g clip-path="url(#clip0_2951_3251)">
<path d="M21.2295 20.6924L21.7711 20.7553C23.9905 20.8745 24.7071 21.2948 24.9482 21.4769C25.1299 21.6556 25.5493 22.2546 25.5493 24.5978V32.5377C25.5796 32.8386 25.4932 33.1395 25.3082 33.3784C25.1893 33.4975 24.8294 33.7391 23.3266 34.219C22.6095 34.4709 21.864 34.6332 21.1072 34.7023C20.4324 34.8134 19.7501 34.8731 19.0662 34.881C17.4702 34.9026 15.8875 34.5872 14.4212 33.9554C12.9548 33.3236 11.6376 32.3895 10.5553 31.2139C8.27311 28.7482 7.08749 25.2565 7.08749 20.8745C7.08749 15.5261 8.2269 11.6074 10.5685 9.29062C12.8936 7.0533 15.5918 5.84859 18.5906 5.84859C21.5894 5.84859 23.9277 6.80839 25.7871 8.79419C26.8065 9.9371 27.8259 11.6803 28.8454 14.0235L29.027 14.3842H31.1968L30.7675 2.72096H28.667L28.4886 3.08171C28.3697 3.44552 28.1659 3.77567 27.8942 4.04482C27.7753 4.16397 27.5342 4.28642 26.7581 4.28642C26.6954 4.28642 26.157 4.22354 23.6965 3.50534C21.7849 2.95502 19.8067 2.67104 17.8178 2.66138C12.3717 2.66138 7.85701 4.5876 4.55766 8.37718C1.55917 11.7691 -0.0663471 16.1615 6.9174e-07 20.6924C6.9174e-07 26.1037 1.91884 30.5519 5.76643 33.7954C9.18801 36.741 13.4451 38.1841 18.4816 38.1841C21.3651 38.1624 24.2245 37.6543 26.9397 36.6815C30.8368 35.3576 31.6163 34.5765 31.6163 33.7954V23.9988C31.6163 22.6153 31.9168 21.6556 32.3957 21.2352C32.574 21.1128 33.0563 20.8712 34.4929 20.752L35.0345 20.6924V18.6371H21.2295V20.6924ZM70.5908 5.36538L71.1325 5.42826C72.7508 5.60698 73.8902 5.96773 74.4351 6.5701C74.7357 6.86797 75.2145 7.95023 75.2145 11.2566V24.2404C75.2145 27.3051 74.8546 29.5888 74.1346 31.0318C72.8136 33.5571 70.3564 34.8181 66.4592 34.8181C62.9816 34.8181 60.64 33.6167 59.4411 31.151C58.7805 29.7675 58.4206 27.785 58.4206 25.3227V9.27411C58.4206 7.10957 58.84 6.44764 59.0811 6.20935C59.3222 5.97105 60.1016 5.54741 62.4399 5.42826L62.9783 5.36869V3.26374H47.7398V5.36538L48.2782 5.42826C50.5603 5.60698 51.3397 6.02731 51.5808 6.26892C51.8219 6.51052 52.2413 7.16914 52.2413 9.3337V24.8891C52.2413 28.073 52.7797 30.6578 53.9224 32.6403C55.9601 36.3075 59.8671 38.2337 65.4354 38.2337C71.0731 38.2337 74.9734 36.3075 77.0707 32.5841C78.1507 30.5982 78.7517 27.7752 78.7517 24.2305V11.197C78.7517 7.95354 79.2306 6.93085 79.5311 6.56347C79.8911 6.14315 80.7299 5.60037 82.8903 5.36207L83.4284 5.3025V3.26374H70.7131V5.36869L70.5908 5.36538ZM123.731 28.2054C122.532 30.9094 121.152 32.594 119.714 33.256C118.215 33.9774 115.752 34.3382 112.515 34.3382C108.737 34.3382 107.479 34.219 107.058 34.0966C106.94 34.037 106.58 33.9774 106.58 32.8952V21.1756H113.657C116.177 21.1756 117.016 21.6556 117.254 21.8972C117.614 22.2579 118.096 23.1582 118.516 25.4418L118.635 25.9217H120.913V13.239H118.635L118.516 13.7223C118.096 15.9464 117.614 16.9062 117.254 17.2669C117.016 17.5681 116.177 18.048 113.657 18.048H106.58V7.45709C106.58 6.676 106.699 6.49398 106.699 6.49398C106.986 6.38293 107.294 6.34208 107.601 6.37483H114.377C117.855 6.37483 119.176 6.85473 119.662 7.21548C120.147 7.57624 120.861 8.59888 121.339 11.1242L121.459 11.6041H123.859L123.559 3.2505H95.9023V5.36538L96.4437 5.42826C98.66 5.60698 99.38 6.02731 99.6216 6.26892C99.8623 6.51052 100.219 7.22872 100.219 9.3337V31.5084C100.219 33.7921 99.7993 34.3944 99.6216 34.5732C99.38 34.8148 98.6002 35.1756 96.3815 35.4172L95.8425 35.4767V37.5188H123.79L126.37 27.9207H123.79L123.731 28.2054ZM156.48 18.1076L152.1 15.4036C150.811 14.6598 149.639 13.7284 148.623 12.64C147.943 11.8344 147.58 10.8084 147.602 9.75402C147.572 9.20164 147.677 8.65038 147.907 8.14763C148.137 7.64486 148.486 7.20569 148.923 6.86797C149.826 6.14879 150.951 5.76624 152.104 5.7857C153.722 5.7857 155.406 6.38807 157.081 7.58947C158.755 8.79087 159.961 10.8991 160.74 13.9606L160.859 14.4405H163.197L161.982 2.60181H159.94L159.822 3.02213C159.74 3.38419 159.599 3.7299 159.402 4.04482C159.179 4.21253 158.905 4.29682 158.627 4.28312C158.564 4.28312 158.144 4.22354 156.043 3.50203C154.671 2.96423 153.217 2.65997 151.743 2.60181C148.864 2.60181 146.46 3.50203 144.666 5.30581C143.78 6.18267 143.083 7.23274 142.619 8.39079C142.155 9.54884 141.933 10.7901 141.968 12.0377C141.968 14.0797 142.744 15.9431 144.243 17.6873C145.192 18.6782 146.26 19.5466 147.424 20.2721L151.681 22.9199C154.082 24.4224 155.644 25.5675 156.361 26.2858C156.872 26.784 157.274 27.3829 157.542 28.0449C157.81 28.7069 157.939 29.4174 157.92 30.1316C157.92 31.7567 157.44 33.0177 156.42 33.9179C155.391 34.8198 154.068 35.312 152.702 35.3013C149.944 35.3013 147.664 34.219 145.805 32.0545C144.726 30.7935 143.764 29.0493 142.926 26.8881L142.807 26.5274H140.587L142.265 38.3661H144.365L144.425 37.8862C144.483 37.5453 144.605 37.2186 144.785 36.923C144.848 36.7443 145.085 36.6815 145.446 36.6815C145.505 36.6815 145.987 36.7443 148.144 37.5254C149.762 38.1034 151.465 38.4076 153.184 38.4256C156.361 38.4256 159.062 37.4658 161.11 35.662C162.12 34.8066 162.929 33.7377 163.478 32.5321C164.027 31.3264 164.304 30.0139 164.287 28.6886C164.327 26.7143 163.693 24.7855 162.49 23.2211C161.275 21.4769 159.296 19.8518 156.48 18.1076ZM200.203 22.9165C199.064 21.4769 197.023 19.8518 194.259 18.1076L189.879 15.4036C188.598 14.6573 187.433 13.7261 186.422 12.64C185.742 11.8344 185.379 10.8084 185.401 9.75402C185.371 9.20164 185.476 8.65038 185.706 8.14763C185.936 7.64486 186.285 7.20569 186.722 6.86797C187.625 6.14879 188.749 5.76624 189.903 5.7857C191.521 5.7857 193.205 6.38807 194.879 7.58947C196.554 8.79087 197.76 10.8991 198.539 13.9606L198.658 14.4405H200.996L199.78 2.60181H197.739L197.621 3.02213C197.539 3.38419 197.398 3.7299 197.201 4.04482C196.977 4.21301 196.701 4.29732 196.422 4.28312C196.363 4.28312 195.943 4.22354 193.842 3.50203C192.462 2.96236 191.002 2.65807 189.523 2.60181C186.646 2.60181 184.239 3.50203 182.445 5.30581C181.559 6.18315 180.864 7.2333 180.399 8.39127C179.935 9.54917 179.713 10.7903 179.747 12.0377C179.747 14.0797 180.526 15.9431 182.025 17.6873C182.973 18.6783 184.041 19.5467 185.202 20.2721L189.463 22.9199C191.861 24.4224 193.426 25.5675 194.143 26.2858C194.654 26.7843 195.056 27.3834 195.324 28.0453C195.593 28.7071 195.721 29.4175 195.702 30.1316C195.702 31.7567 195.22 33.0177 194.143 33.9179C193.112 34.8178 191.788 35.3098 190.421 35.3013C187.663 35.3013 185.384 34.219 183.525 32.0545C182.445 30.7935 181.484 29.0493 180.645 26.8881L180.526 26.5274H178.307L179.984 38.3661H182.085L182.144 37.8862C182.207 37.5546 182.308 37.2314 182.445 36.923C182.505 36.7443 182.742 36.6815 183.106 36.6815C183.168 36.6815 183.647 36.7443 185.807 37.5254C187.424 38.1037 189.127 38.408 190.844 38.4256C194.024 38.4256 196.722 37.4658 198.77 35.662C199.78 34.8058 200.588 33.7361 201.137 32.53C201.686 31.3237 201.961 30.0108 201.944 28.6853C202 26.2824 201.402 24.4787 200.203 22.9165Z" fill="#C5C5C5"/>
</g>
<defs>
<clipPath id="clip0_2951_3251">
<rect width="202" height="40" fill="white"/>
</clipPath>
</defs>
</svg>
