<svg width="110" height="40" viewBox="0 0 110 40" fill="none" xmlns="http://www.w3.org/2000/svg">
<path d="M58.3692 27.6514C58.3692 29.159 56.465 31.0117 54.9161 31.0117H53.5062C53.5076 21.7868 53.5076 11.4448 53.5062 9.60901C53.5056 9.55466 53.5164 9.50074 53.5379 9.45033C53.5594 9.39992 53.5913 9.35401 53.6316 9.31523C53.6719 9.27646 53.7199 9.24557 53.7729 9.22434C53.8259 9.20311 53.8828 9.19196 53.9403 9.19152H57.9329C58.1729 9.19152 58.3692 9.38165 58.3692 9.61239V27.6514ZM51.8627 34.2488C51.8627 35.2029 51.3684 36.8012 48.0571 36.8012C41.6401 36.8012 37.7012 32.053 37.7012 28.6474C37.7012 28.6474 37.694 17.6362 37.694 9.61239C37.6934 9.55796 37.7041 9.50394 37.7256 9.45345C37.7472 9.40296 37.779 9.35699 37.8195 9.31818C37.8599 9.27938 37.908 9.24851 37.9611 9.22735C38.0142 9.20619 38.0712 9.19516 38.1289 9.1949H42.1265C42.3665 9.1949 42.5635 9.38368 42.5635 9.61578V27.3083C42.5635 30.2315 45.013 32.6025 48.0327 32.6025H51.8648L51.8627 34.2488ZM58.236 7.60475H53.6366C52.6586 7.60475 51.862 8.37615 51.862 9.32279V31.0137H48.0298C45.9157 31.0137 44.202 29.3545 44.202 27.3083V9.32278C44.202 8.37412 43.4068 7.60407 42.4267 7.60407H37.8251C36.845 7.60407 36.0498 8.37412 36.0484 9.32278C36.0463 17.1652 36.0556 28.6481 36.0556 28.6481C36.0563 34.6839 43.045 38.3899 48.0556 38.3899C51.4164 38.3899 53.504 36.7998 53.504 34.238V32.6025H54.9154C57.3913 32.6025 60.0106 30.0583 60.0106 27.6514V9.32278C60.0127 8.37412 59.2175 7.60475 58.236 7.60475ZM31.0521 30.628C31.0526 30.6824 31.0418 30.7363 31.0202 30.7867C30.9987 30.8372 30.9668 30.8831 30.9263 30.9218C30.8859 30.9605 30.8378 30.9913 30.7848 31.0124C30.7317 31.0336 30.6748 31.0446 30.6172 31.0448H26.6196C26.5028 31.0434 26.3913 30.9984 26.3094 30.9197C26.2276 30.841 26.182 30.735 26.1825 30.6246V12.9321C26.1825 10.0089 23.7324 7.63791 20.7134 7.63791H16.8812V5.99161C16.8812 5.03955 17.3756 3.43926 20.6869 3.43926C27.1039 3.43926 31.0442 8.18736 31.0442 11.593C31.0442 11.593 31.0521 22.6577 31.0521 30.628ZM10.8088 31.0482C10.692 31.0466 10.5807 31.0013 10.4992 30.9223C10.4176 30.8433 10.3726 30.737 10.374 30.6267V12.591C10.374 11.0835 12.2782 9.22805 13.8264 9.22805H15.2377C15.2356 22.4384 15.2356 29.1982 15.2377 30.626C15.2389 30.7363 15.1937 30.8425 15.112 30.9214C15.0304 31.0003 14.919 31.0454 14.8022 31.0469H10.8095L10.8088 31.0482ZM32.6848 11.593C32.6855 5.55651 25.6968 1.85046 20.6869 1.85046C17.3254 1.85046 15.2377 3.44061 15.2377 6.00243V7.63791H13.8271C11.3504 7.63791 8.7312 10.1821 8.7312 12.589V30.9176C8.7312 31.8663 9.52643 32.6363 10.5058 32.6363H15.1045C15.1332 32.6363 15.1575 32.6289 15.1862 32.6289C16.1261 32.5863 16.8791 31.8385 16.8791 30.9176V9.2267H20.7119C22.8254 9.2267 24.5398 10.8859 24.5398 12.9321V30.9176C24.5398 31.8663 25.335 32.6363 26.3144 32.6363H30.9167C31.8967 32.6363 32.6912 31.8683 32.6912 30.9176C32.6948 22.929 32.6848 11.593 32.6848 11.593ZM98.9746 31.0144C98.9577 31.0145 98.941 31.0109 98.9259 31.0038C98.9107 30.9968 98.8975 30.9865 98.8872 30.9738L94.9175 25.9895H94.8796V30.9088C94.8799 30.9227 94.8772 30.9366 94.8718 30.9495C94.8664 30.9625 94.8584 30.9743 94.8481 30.9843C94.8379 30.9943 94.8256 31.0023 94.8121 31.0078C94.7985 31.0133 94.784 31.0162 94.7692 31.0164H93.3658C93.3511 31.0162 93.3366 31.0133 93.3231 31.0079C93.3096 31.0024 93.2974 30.9945 93.2872 30.9845C93.2769 30.9746 93.2688 30.9629 93.2634 30.95C93.258 30.9371 93.2552 30.9234 93.2554 30.9095V16.7728C93.2554 16.7132 93.3049 16.6652 93.3658 16.6652H94.7692C94.8301 16.6652 94.8796 16.7132 94.8796 16.7728V25.7879H94.9175L98.6451 21.2238C98.6601 21.2048 98.6797 21.1893 98.7022 21.1787C98.7247 21.1681 98.7496 21.1627 98.7748 21.1629H100.408C100.456 21.1629 100.481 21.2164 100.45 21.2495L96.4485 25.8413L100.829 30.9271C100.836 30.9347 100.841 30.944 100.842 30.9538C100.843 30.9637 100.842 30.9737 100.837 30.9827C100.833 30.9918 100.826 30.9995 100.817 31.005C100.809 31.0104 100.798 31.0135 100.788 31.0137L98.9746 31.0144ZM89.2707 31.0144C89.256 31.0142 89.2415 31.0113 89.228 31.0058C89.2146 31.0004 89.2023 30.9924 89.1921 30.9825C89.1818 30.9726 89.1738 30.9608 89.1683 30.948C89.1629 30.9351 89.1602 30.9213 89.1604 30.9075V24.214C89.1604 22.7341 88.5371 22.0013 86.8764 22.0013C86.2094 22.0013 85.6621 22.1008 85.1527 22.3024C85.1318 22.3111 85.1141 22.3253 85.1016 22.3433C85.0891 22.3613 85.0825 22.3824 85.0825 22.4039V30.9054C85.0827 30.9194 85.0799 30.9332 85.0745 30.9461C85.069 30.959 85.0608 30.9708 85.0505 30.9807C85.0402 30.9906 85.0279 30.9986 85.0143 31.004C85.0008 31.0094 84.9862 31.0123 84.9715 31.0123H83.5307C83.501 31.012 83.4727 31.0005 83.4519 30.9805C83.4311 30.9605 83.4195 30.9335 83.4197 30.9054V21.778C83.4195 21.7472 83.4285 21.717 83.4457 21.6909C83.463 21.6648 83.4877 21.6438 83.5171 21.6305C84.4492 21.2333 85.6528 20.9789 86.8743 20.9789C89.6124 20.9789 90.821 22.1305 90.821 24.214V30.9075C90.821 30.9663 90.7709 31.0144 90.71 31.0144L89.2707 31.0144ZM79.4414 25.4577C76.8544 25.7493 75.3255 26.4456 75.3255 28.1819C75.3255 29.5163 76.1752 30.2653 77.7614 30.2653C78.3718 30.2653 78.9821 30.1489 79.3819 29.9662C79.4006 29.9569 79.4163 29.9429 79.427 29.9257C79.4378 29.9085 79.4433 29.8888 79.4428 29.8688L79.4414 25.4577ZM77.6081 31.1971C75.1722 31.1971 73.7387 30.1726 73.7387 28.2184C73.7387 25.842 76.1559 24.9285 79.4407 24.6186V24.015C79.4407 22.6617 78.6856 22.0588 77.2692 22.0588C76.4037 22.0588 75.4652 22.3024 74.7717 22.6529C74.765 22.6564 74.7576 22.6584 74.75 22.6588C74.7424 22.6592 74.7347 22.6581 74.7276 22.6555C74.7205 22.6528 74.7141 22.6487 74.7089 22.6435C74.7036 22.6383 74.6997 22.632 74.6972 22.6252L74.3598 21.7855C74.3496 21.7604 74.3494 21.7327 74.3593 21.7075C74.3692 21.6824 74.3885 21.6615 74.4135 21.6488C75.3504 21.2173 76.3773 20.9884 77.4196 20.9789C79.6291 20.9789 80.9888 21.9844 80.9888 24.1774V30.402C80.9888 30.4629 80.9559 30.5197 80.8986 30.5455C80.089 30.9427 78.9184 31.1971 77.6081 31.1971ZM68.0008 21.9844C67.3962 21.9844 66.8488 22.1299 66.3767 22.3498V29.8438C66.3767 29.8884 66.4011 29.927 66.4433 29.9432C66.8166 30.0907 67.3317 30.1719 67.8117 30.1719C69.9072 30.1719 70.7383 28.4539 70.7383 25.9868C70.7383 23.5197 69.7568 21.9844 68.0008 21.9844ZM67.7572 31.1964C66.5959 31.1964 65.5048 30.9102 64.8185 30.5468C64.7923 30.5324 64.7707 30.5116 64.756 30.4866C64.7412 30.4616 64.7339 30.4333 64.7347 30.4047V16.7708C64.7347 16.7119 64.7848 16.6638 64.8436 16.6638H66.2678C66.3287 16.6638 66.3781 16.7112 66.3781 16.7708V21.4532C66.9634 21.1609 67.6612 21.0134 68.4178 21.0134C70.7977 21.0134 72.4025 22.9148 72.4025 25.8921C72.4011 29.0764 70.7963 31.1964 67.7572 31.1964Z" fill="#C5C5C5"/>
</svg>
