<svg width="110" height="40" viewBox="0 0 110 40" fill="none" xmlns="http://www.w3.org/2000/svg">
<path d="M26.1382 6.41561C19.992 6.41561 14.7698 10.5408 14.7698 16.892C14.7698 22.6018 19.4162 27.1294 26.0713 27.1294C32.2175 27.1294 37.4397 23.0043 37.4397 16.653C37.4531 10.9558 32.8066 6.41561 26.1382 6.41561ZM26.1382 25.9095C22.1345 25.9095 19.2689 22.061 19.2689 16.7536C19.2689 11.6727 21.9872 7.6607 26.0847 7.6607C30.0884 7.6607 32.9539 11.5092 32.9539 16.8165C32.9539 21.8849 30.2357 25.9095 26.1382 25.9095ZM89.8899 14.276V15.1438L91.1218 15.3702C91.5503 15.4582 91.6708 15.7727 91.403 16.4015L88.5777 22.7779C88.4571 23.042 88.2965 23.042 88.2161 22.7779L85.5916 16.4015C85.3104 15.7475 85.4711 15.4582 85.8996 15.3702L87.1181 15.1438V14.276H76.2317V15.1438L77.4636 15.3702C77.8921 15.4582 78.0528 15.7727 77.7716 16.4015L75.0533 23.1174C74.9328 23.3816 74.7721 23.3816 74.6918 23.1174L71.9334 16.4015C71.6924 15.7475 71.8129 15.4582 72.2414 15.3702L73.4599 15.1438V14.276H66.5504V15.1564L67.2334 15.2947C67.6886 15.3828 67.9698 15.6092 68.1573 16.0116L72.8305 26.8024H74.9462L79.6195 16.0116C79.8605 15.4457 80.1417 15.2067 80.6237 15.2067H80.8112C81.2129 15.2067 81.5075 15.3451 81.7619 15.8984L86.6494 27.1043L85.3372 30.0346C84.4802 31.984 83.8508 32.3362 83.0474 32.3362C82.7127 32.3362 82.3511 32.2859 81.9762 32.2859C81.0255 32.2859 80.4497 32.9273 80.4497 33.6064C80.4497 34.3862 81.1326 34.927 82.1904 34.927C83.7169 34.927 85.2167 33.7699 86.4754 31.0282L93.1036 16.3512C93.4116 15.6972 93.7999 15.4079 94.4426 15.2822L95.1122 15.169V14.276H89.8899ZM47.0406 25.6957L41.9389 26.2994C40.2651 26.5006 39.7295 25.9849 39.7295 25.18C39.7295 24.2368 40.8275 23.4822 44.6571 23.4822H44.7107C47.4825 23.4822 50.7632 21.9101 50.7632 18.4892C50.7632 17.3951 50.3347 16.4015 49.5312 15.584C49.2501 15.0306 49.1295 14.4144 49.1697 13.8107C49.1697 11.2828 51.0042 9.84904 52.9056 9.84904C53.6957 9.84904 53.9501 9.96223 53.9501 10.4905C53.9501 10.6288 53.9099 10.7546 53.9099 10.9181C53.9099 11.811 54.6999 12.6411 55.8381 12.6411C57.0031 12.6411 57.7262 11.7733 57.7262 10.83C57.7262 9.39628 56.347 8.32726 53.8162 8.32726C50.3213 8.32726 47.6432 10.4527 47.6432 13.6975C47.6432 13.9616 47.6834 14.1628 47.6834 14.3515C46.7862 13.9994 45.8087 13.8233 44.8312 13.8359C42.0728 13.8359 38.7788 15.4079 38.7788 18.8288C38.7788 20.4009 39.7295 21.8724 41.3765 22.7276C38.9261 23.042 37.5335 24.2745 37.5335 26.1987C37.5335 28.1481 39.1805 29.5567 42.2737 29.2171L46.7327 28.7015C48.9555 28.4374 49.6919 29.192 49.6919 30.2736C49.6919 32.1727 47.8039 33.6944 44.7643 33.6944C42.354 33.6944 41.4568 32.8895 41.4568 31.7451L41.497 31.1791C41.497 30.4874 41.0417 30.0095 40.3053 29.9717C39.4483 29.9717 38.9261 30.5377 38.9261 31.3678C38.9261 33.2668 40.8543 34.9521 44.791 34.9521C49.2233 34.9521 52.0353 32.2607 52.0353 29.1543C52.0486 26.7018 49.9464 25.3561 47.0406 25.6957ZM44.7509 14.8797C46.1836 14.8797 47.3486 16.4015 47.3486 18.7282C47.3486 20.7279 46.3711 22.4635 44.8446 22.4635C43.3717 22.4635 42.2201 20.9417 42.2201 18.615C42.2067 16.6279 43.1842 14.8797 44.7509 14.8797Z" fill="#C5C5C5"/>
<path d="M65.3453 25.3309V5.45978L59.9624 6.75518V7.35886L61.4889 7.8242C61.7299 7.91223 61.8236 8.08831 61.8236 8.31469V25.2555C61.8236 25.5699 61.5424 25.8089 61.1407 25.8089L59.7749 25.834L58.3287 25.8089C57.927 25.8089 57.6458 25.5825 57.6458 25.2555V13.7981L52.2763 15.0809V15.6846L53.8028 16.15C54.0438 16.238 54.1375 16.4141 54.1375 16.6405V25.3435C54.1375 25.6076 53.9902 25.746 53.776 25.7711L52.5307 25.9095V26.8276H67.1932V25.9095L65.7068 25.7711C65.506 25.7334 65.3453 25.5951 65.3453 25.3309Z" fill="#C5C5C5"/>
</svg>
