<svg width="175" height="40" viewBox="0 0 175 40" fill="none" xmlns="http://www.w3.org/2000/svg">
<path d="M40.0807 40H0V0H40.0807V40Z" fill="#C5C5C5"/>
<path d="M120.749 1.25C123.774 1.25012 126.475 1.78382 128.853 2.84912C131.23 3.91449 133.155 5.41777 134.626 7.35596C136.105 9.29433 137.037 11.5493 137.424 14.1187H129.408C129.106 12.8431 128.547 11.7471 127.732 10.8325C126.917 9.91789 125.916 9.22511 124.731 8.75488C123.546 8.27689 122.248 8.03711 120.837 8.03711C118.887 8.03717 117.169 8.49033 115.682 9.39697C114.204 10.2957 113.049 11.6468 112.216 13.4521C111.393 15.2477 110.981 17.4436 110.981 20.0366C110.981 22.6296 111.38 24.6991 112.177 26.4966C112.976 28.2841 114.117 29.6503 115.607 30.5908C117.093 31.5311 118.855 31.9994 120.888 31.9995C122.602 31.9995 124.162 31.6619 125.565 30.9814C126.968 30.2932 128.092 29.2946 128.941 27.9858C129.664 26.8811 130.113 25.5984 130.291 24.1406H121.353V18.2349H137.701V37.9175H132.241L131.455 33.3618C131.321 33.5456 131.187 33.7276 131.045 33.9014C129.675 35.5793 128.045 36.8086 126.155 37.5903C124.264 38.3621 122.204 38.7476 119.978 38.7476C116.491 38.7475 113.454 37.9502 110.866 36.355C108.286 34.752 106.305 32.5274 104.917 29.6802C103.54 26.8355 102.85 23.5866 102.85 19.9365C102.85 16.2861 103.572 13.0096 105.017 10.1904C106.462 7.36956 108.533 5.17529 111.23 3.60596C113.936 2.0366 117.111 1.25 120.749 1.25Z" fill="#C5C5C5"/>
<path fill-rule="evenodd" clip-rule="evenodd" d="M67.8278 2.05811C70.7178 2.05816 73.1293 2.4806 75.0612 3.32764C77.0013 4.17473 78.4415 5.3646 79.3836 6.89209C80.3339 8.41184 80.8072 10.1876 80.8072 12.2192C80.8072 14.1077 80.4341 15.7181 79.6869 17.0532C78.9477 18.388 77.8645 19.4279 76.4359 20.1758C75.9481 20.4295 75.4212 20.6455 74.8606 20.8301C75.3516 20.9841 75.8016 21.16 76.2084 21.3623C77.4602 21.9832 78.3925 22.8592 79.0069 23.9917C79.629 25.1165 80.0001 26.5571 80.1174 28.3105L80.4941 33.8281C80.5279 34.264 80.5651 34.6595 80.6067 35.0122C80.6565 35.3652 80.7221 35.6966 80.7975 36.0059C80.8808 36.3668 80.9858 36.7071 81.113 37.0264C81.2382 37.3452 81.3956 37.6425 81.5802 37.9199H73.5372C73.2433 37.4081 73.0246 36.8129 72.8816 36.1328C72.7383 35.4524 72.647 34.6548 72.6052 33.7402L72.456 30C72.3964 28.5735 72.1777 27.4603 71.7979 26.6626C71.4205 25.8575 70.8487 25.2864 70.0856 24.9512C69.3204 24.6079 68.2859 24.4336 66.9839 24.4336H59.1928V37.9199H51.3527V2.05811H67.8278ZM59.1928 18.3911H67.1722C68.323 18.3911 69.316 18.2035 70.1468 17.8247C70.9877 17.4477 71.6335 16.8747 72.0866 16.1108C72.5398 15.3391 72.7666 14.3804 72.7666 13.2397C72.7665 12.0994 72.5374 11.2298 72.0744 10.5078C71.613 9.77785 70.9411 9.2374 70.0685 8.88428C69.204 8.53134 68.1521 8.35449 66.9178 8.35449H59.1928V18.3911Z" fill="#C5C5C5"/>
<path fill-rule="evenodd" clip-rule="evenodd" d="M175 37.9175H166.832L164.154 30.415H149.296L146.666 37.9199H138.74L151.972 2.05811H161.311L175 37.9175ZM155.993 10.9351C155.514 12.4289 154.868 14.3968 154.053 16.8408C154.045 16.8663 154.039 16.8911 154.029 16.9165C154.021 16.9322 154.012 16.9544 154.002 16.98L151.509 24.0942H161.898L159.384 17.0532C158.67 14.9623 158.039 13.099 157.493 11.4624C157.214 10.6131 156.933 9.74257 156.644 8.85254C156.427 9.55668 156.211 10.2512 155.993 10.9351Z" fill="#C5C5C5"/>
<path d="M89.9511 37.9175H82.9574L97.8302 2.05811H104.826L89.9511 37.9175Z" fill="#C5C5C5"/>
</svg>
