<svg width="215" height="40" viewBox="0 0 215 40" fill="none" xmlns="http://www.w3.org/2000/svg">
<g clip-path="url(#clip0_2951_3255)">
<path d="M11.1129 39.3985L0 1.40351H6.83295L14.7171 29.9749H14.9424L23.4523 1.40351H29.4342L38.4948 29.9749H38.695L46.454 1.40351H53.337L42.2241 39.4236H35.5413L26.5559 10.2757H26.3556L17.8207 39.4236H11.1129V39.3985ZM67.2782 39.9749C64.2998 39.9749 61.6967 39.3734 59.4942 38.1704C57.3262 37.0015 55.5373 35.2362 54.3382 33.0827C53.1118 30.9023 52.5111 28.3208 52.5111 25.3383C52.5111 22.3559 53.1118 19.7744 54.3132 17.594C55.5146 15.4135 57.2416 13.7093 59.4692 12.5063C61.6967 11.3033 64.3248 10.7018 67.3533 10.7018C70.3818 10.7018 73.0349 11.3033 75.2375 12.4812C77.44 13.6842 79.142 15.3634 80.3184 17.5439C81.4948 19.7243 82.0955 22.3308 82.0955 25.3383C82.0955 28.3459 81.4948 30.9023 80.3184 33.1078C79.117 35.3133 77.415 37.0175 75.2125 38.1955C73.0099 39.3985 70.3818 39.9749 67.3283 39.9749H67.2782ZM67.2782 34.4361C69.9313 34.4361 72.0087 33.609 73.4855 31.9799C74.9622 30.3509 75.663 28.1203 75.663 25.3133C75.663 22.5063 74.9371 20.2005 73.4855 18.5965C72.0087 16.9925 69.9563 16.2155 67.2782 16.2155C64.6001 16.2155 62.5728 17.0175 61.096 18.6216C59.6193 20.2256 58.8935 22.4561 58.8935 25.3133C58.8935 28.1704 59.6193 30.3509 61.096 31.9799C62.5728 33.609 64.6251 34.4361 67.2782 34.4361ZM88.1775 39.3985V17.6692H84.9238V11.2531H91.6065V15.7143H93.5838C94.585 14.1103 95.9366 12.8822 97.6135 12.0301C99.2905 11.1779 101.318 10.7268 103.721 10.7268C107.475 10.7268 110.428 11.7794 112.556 13.8847C114.683 15.99 115.735 18.8221 115.735 22.3559V39.3985H109.327V23.4837C109.327 21.1779 108.701 19.3985 107.45 18.1955C106.198 16.9674 104.371 16.3659 101.969 16.3659C99.5658 16.3659 97.7136 16.9674 96.4622 18.1955C95.2107 19.4236 94.585 21.1779 94.585 23.4837V39.3985H88.1775ZM133.48 39.9749C130.627 39.9749 128.174 39.3734 126.172 38.1704C124.169 36.9674 122.643 35.2632 121.591 33.0827C120.565 30.9023 120.04 28.3208 120.04 25.3383C120.04 22.3559 120.54 19.7744 121.566 17.5689C122.593 15.3634 124.069 13.6591 125.997 12.4812C127.924 11.3033 130.226 10.7018 132.905 10.7018C135.107 10.7018 136.984 11.1278 138.561 11.9298C140.138 12.7569 141.339 13.9348 142.19 15.4637H142.391V0H148.798V32.9825H152.002V39.3985H145.369V34.9373H143.392C142.416 36.5664 141.114 37.7945 139.462 38.6717C137.81 39.5238 135.833 39.9749 133.505 39.9749H133.48ZM134.581 34.4862C136.959 34.4862 138.861 33.8095 140.288 32.4812C141.69 31.1278 142.416 29.3233 142.416 27.0426V23.6591C142.416 21.3784 141.715 19.5489 140.288 18.2206C138.886 16.8922 136.984 16.1905 134.581 16.1905C131.978 16.1905 129.976 17.0175 128.575 18.6466C127.173 20.2757 126.472 22.5063 126.472 25.3634C126.472 28.2206 127.173 30.4511 128.575 32.0802C129.976 33.7093 131.978 34.5363 134.581 34.5363V34.4862ZM169.597 39.9749C166.619 39.9749 164.016 39.3734 161.813 38.1704C159.635 37.0091 157.856 35.219 156.707 33.0326C155.506 30.802 154.93 28.2206 154.93 25.2381C154.93 22.2556 155.531 19.6992 156.707 17.5188C157.884 15.3383 159.561 13.6591 161.738 12.4812C163.891 11.3033 166.469 10.7018 169.422 10.7018C172.375 10.7018 174.678 11.2531 176.73 12.381C178.783 13.4837 180.36 15.0627 181.461 17.1178C182.562 19.1729 183.138 21.604 183.138 24.411V26.7669H161.087C161.338 29.3233 162.189 31.3033 163.665 32.7068C165.142 34.1103 167.119 34.787 169.597 34.787C171.424 34.787 172.901 34.4361 174.077 33.7594C175.254 33.0827 176.055 32.0301 176.48 30.6516H182.988C182.287 33.584 180.785 35.8897 178.458 37.5188C176.105 39.1729 173.176 39.9749 169.672 39.9749H169.597ZM161.212 22.2807H176.956C176.705 20.2005 175.93 18.6216 174.603 17.5188C173.276 16.416 171.549 15.8396 169.372 15.8396C167.194 15.8396 165.417 16.391 163.991 17.5188C162.589 18.6216 161.638 20.2256 161.212 22.2807ZM189.671 39.3985V17.6692H186.417V11.2531H193.1V16.6416H195.077C195.828 14.787 197.029 13.3835 198.681 12.406C200.333 11.4286 202.235 10.9524 204.363 10.9524H206.715V16.4411H204.062C201.409 16.4411 199.382 17.193 198.005 18.7469C196.629 20.2757 195.953 22.3308 195.953 24.8872V39.3985H189.646H189.671ZM209.018 39.9749C208.192 39.9749 207.416 39.8246 206.715 39.5238C206.003 39.229 205.356 38.7945 204.813 38.2456C203.701 37.1366 203.071 35.6321 203.061 34.0602C203.061 33.2331 203.211 32.4812 203.537 31.7544C203.862 31.0276 204.263 30.4261 204.813 29.8747C205.364 29.3233 205.99 28.8972 206.715 28.5965C207.441 28.2957 208.217 28.1454 209.018 28.1454C209.819 28.1454 210.62 28.2957 211.346 28.5965C212.072 28.8972 212.697 29.3233 213.248 29.8747C213.799 30.4261 214.224 31.0526 214.524 31.7544C214.825 32.4561 215 33.2331 215 34.0602C215 34.8872 214.85 35.6391 214.524 36.3659C214.199 37.0927 213.799 37.6942 213.248 38.2456C212.697 38.797 212.072 39.2231 211.346 39.5238C210.62 39.8246 209.844 39.9749 209.018 39.9749ZM209.018 38.7218C209.669 38.7218 210.27 38.5965 210.845 38.3709C211.421 38.1454 211.896 37.7945 212.322 37.3684C212.747 36.9424 213.098 36.4411 213.323 35.8647C213.573 35.2882 213.673 34.6867 213.673 34.0351C213.673 33.3835 213.548 32.782 213.323 32.2055C213.098 31.6291 212.747 31.1529 212.322 30.7268C211.896 30.3008 211.396 29.9499 210.845 29.7243C210.295 29.4987 209.669 29.3734 209.018 29.3734C208.367 29.3734 207.767 29.4987 207.191 29.7243C206.615 29.9749 206.115 30.3008 205.689 30.7268C205.264 31.1529 204.913 31.6541 204.688 32.2055C204.463 32.7569 204.338 33.3835 204.338 34.0351C204.338 34.6867 204.463 35.2882 204.688 35.8647C204.938 36.4411 205.264 36.9424 205.689 37.3684C206.115 37.7945 206.615 38.1454 207.191 38.3709C207.767 38.6216 208.367 38.7218 209.018 38.7218ZM206.59 37.0426V31.0777H209.544C210.144 31.0777 210.645 31.2281 211.02 31.5539C211.396 31.8797 211.596 32.3058 211.596 32.8571C211.596 33.208 211.521 33.4837 211.371 33.7343C211.221 33.985 210.995 34.1353 210.72 34.2356V34.2857C210.995 34.2857 211.196 34.3609 211.346 34.5363C211.496 34.7118 211.571 34.9373 211.571 35.2381V37.0426H210.194V35.1378H207.917V37.0426H206.565H206.59ZM207.967 33.9599H209.393C209.644 33.9599 209.844 33.8847 210.019 33.7343C210.194 33.584 210.27 33.3835 210.27 33.1328C210.27 32.8822 210.194 32.6817 210.019 32.5313C209.846 32.3803 209.623 32.2998 209.393 32.3058H207.967V33.9599Z" fill="#C5C5C5"/>
</g>
<defs>
<clipPath id="clip0_2951_3255">
<rect width="215" height="40" fill="white"/>
</clipPath>
</defs>
</svg>
